<?xml version="1.0" encoding="utf-8"?>
<!-- Generator: Adobe Illustrator 19.2.1, SVG Export Plug-In . SVG Version: 6.00 Build 0)  -->
<svg version="1.1" id="Layer_1" xmlns="http://www.w3.org/2000/svg" xmlns:xlink="http://www.w3.org/1999/xlink" x="0px" y="0px"
	 width="512px" height="512px" viewBox="0 0 512 512" style="enable-background:new 0 0 512 512;" xml:space="preserve">
<style type="text/css">
	.st0{fill:#4D6FAB;}
	.st1{fill:#FEFEFF;}
</style>
<rect class="st0" width="512" height="512"/>
<path class="st1" d="M204.9,356c0-28-0.1-56,0.1-84c0-4.9-1.3-6.2-6.1-6.1c-12.2,0.3-24.3,0-36.5,0.2c-3.9,0.1-5.6-0.8-5.6-5.2
	c0.2-18.2,0.2-36.3,0-54.5c0-4.1,1.5-5.2,5.2-5.1c12.7,0.1,25.3-0.1,38,0.1c3.8,0.1,4.9-1.2,4.8-4.9c-0.1-17.8-0.2-35.7,0-53.5
	c0.3-40.1,27.5-71.5,67.1-78c18.2-3,36.5-2.3,54.7-1.1c4.3,0.3,8.6,0,12.9,1c2.5,0.6,3.4,1.4,3.3,3.8c-0.4,17.7-0.8,35.3-1.1,53
	c-0.1,3.5-2.2,3.5-4.6,3.5c-11.7,0-23.3,0-35-0.1c-4.5-0.1-9,0.4-13.3,1.5c-12.6,3.2-15.2,10-15.8,22.7c-0.7,16.1,0,32.3-0.3,48.5
	c-0.1,4.1,2.2,3.6,4.7,3.6c19.8,0,39.7,0.1,59.5-0.1c4.3,0,6.2,0.8,6,5.8c-0.9,17.4-1.4,34.9-2.2,52.4c-0.3,6.7-0.5,6.7-7.4,6.7
	c-18.7,0-37.3,0.1-56-0.1c-3.8,0-4.6,1-4.6,4.7c0.1,56.2,0.1,112.3,0.1,168.5c0,6.9,0,6.9-6.7,6.9c-18.8,0-37.7-0.1-56.5,0.1
	c-4.1,0-5-1.3-5-5.1C205,412.7,204.9,384.3,204.9,356C204.9,356,204.9,356,204.9,356z"/>
<g>
	<path class="st1" d="M123.5,452.9c3.9,3.9,2.6,7.1-2.9,7.1H62c-5.5,0-10-4.5-10-10v-58.6c0-5.5,3.2-6.8,7.1-2.9L123.5,452.9z"/>
</g>
<g>
	<path class="st1" d="M59.1,122.7c-3.9,3.9-7.1,2.6-7.1-2.9V61.2c0-5.5,4.5-10,10-10h58.6c5.5,0,6.8,3.2,2.9,7.1L59.1,122.7z"/>
</g>
<g>
	<path class="st1" d="M389.3,58.3c-3.9-3.9-2.6-7.1,2.9-7.1h58.6c5.5,0,10,4.5,10,10v58.6c0,5.5-3.2,6.8-7.1,2.9L389.3,58.3z"/>
</g>
<g>
	<path class="st1" d="M453.7,388.5c3.9-3.9,7.1-2.6,7.1,2.9V450c0,5.5-4.5,10-10,10h-58.6c-5.5,0-6.8-3.2-2.9-7.1L453.7,388.5z"/>
</g>
</svg>
